<svg width="25" height="31" viewBox="0 0 25 31" fill="none" xmlns="http://www.w3.org/2000/svg">
<g clip-path="url(#clip0_17_305)">
<path d="M22.2031 5.73391C22.4062 5.73391 22.6009 5.83268 22.7445 6.0085C22.8881 6.18431 22.9688 6.42277 22.9688 6.67141V23.5464C22.9688 23.795 22.8881 24.0335 22.7445 24.2093C22.6009 24.3851 22.4062 24.4839 22.2031 24.4839H2.29688C2.09382 24.4839 1.89908 24.3851 1.7555 24.2093C1.61191 24.0335 1.53125 23.795 1.53125 23.5464V6.67141C1.53125 6.42277 1.61191 6.18431 1.7555 6.0085C1.89908 5.83268 2.09382 5.73391 2.29688 5.73391H22.2031ZM2.29688 3.85891C1.68771 3.85891 1.10349 4.15523 0.672739 4.68267C0.241991 5.21012 0 5.92549 0 6.67141L0 23.5464C0 24.2923 0.241991 25.0077 0.672739 25.5351C1.10349 26.0626 1.68771 26.3589 2.29688 26.3589H22.2031C22.8123 26.3589 23.3965 26.0626 23.8273 25.5351C24.258 25.0077 24.5 24.2923 24.5 23.5464V6.67141C24.5 5.92549 24.258 5.21012 23.8273 4.68267C23.3965 4.15523 22.8123 3.85891 22.2031 3.85891H2.29688Z" fill="#8B8C91"/>
<path d="M7.65625 15.1089C7.65625 14.8603 7.73691 14.6218 7.8805 14.446C8.02408 14.2702 8.21882 14.1714 8.42188 14.1714H19.1406C19.3437 14.1714 19.5384 14.2702 19.682 14.446C19.8256 14.6218 19.9062 14.8603 19.9062 15.1089C19.9062 15.3576 19.8256 15.596 19.682 15.7718C19.5384 15.9476 19.3437 16.0464 19.1406 16.0464H8.42188C8.21882 16.0464 8.02408 15.9476 7.8805 15.7718C7.73691 15.596 7.65625 15.3576 7.65625 15.1089ZM7.65625 10.4214C7.65625 10.1728 7.73691 9.93431 7.8805 9.7585C8.02408 9.58268 8.21882 9.48391 8.42188 9.48391H19.1406C19.3437 9.48391 19.5384 9.58268 19.682 9.7585C19.8256 9.93431 19.9062 10.1728 19.9062 10.4214C19.9062 10.6701 19.8256 10.9085 19.682 11.0843C19.5384 11.2601 19.3437 11.3589 19.1406 11.3589H8.42188C8.21882 11.3589 8.02408 11.2601 7.8805 11.0843C7.73691 10.9085 7.65625 10.6701 7.65625 10.4214ZM7.65625 19.7964C7.65625 19.5478 7.73691 19.3093 7.8805 19.1335C8.02408 18.9577 8.21882 18.8589 8.42188 18.8589H19.1406C19.3437 18.8589 19.5384 18.9577 19.682 19.1335C19.8256 19.3093 19.9062 19.5478 19.9062 19.7964C19.9062 20.045 19.8256 20.2835 19.682 20.4593C19.5384 20.6351 19.3437 20.7339 19.1406 20.7339H8.42188C8.21882 20.7339 8.02408 20.6351 7.8805 20.4593C7.73691 20.2835 7.65625 20.045 7.65625 19.7964ZM6.125 10.4214C6.125 10.6701 6.04434 10.9085 5.90075 11.0843C5.75717 11.2601 5.56243 11.3589 5.35938 11.3589C5.15632 11.3589 4.96158 11.2601 4.818 11.0843C4.67441 10.9085 4.59375 10.6701 4.59375 10.4214C4.59375 10.1728 4.67441 9.93431 4.818 9.7585C4.96158 9.58268 5.15632 9.48391 5.35938 9.48391C5.56243 9.48391 5.75717 9.58268 5.90075 9.7585C6.04434 9.93431 6.125 10.1728 6.125 10.4214ZM6.125 15.1089C6.125 15.3576 6.04434 15.596 5.90075 15.7718C5.75717 15.9476 5.56243 16.0464 5.35938 16.0464C5.15632 16.0464 4.96158 15.9476 4.818 15.7718C4.67441 15.596 4.59375 15.3576 4.59375 15.1089C4.59375 14.8603 4.67441 14.6218 4.818 14.446C4.96158 14.2702 5.15632 14.1714 5.35938 14.1714C5.56243 14.1714 5.75717 14.2702 5.90075 14.446C6.04434 14.6218 6.125 14.8603 6.125 15.1089ZM6.125 19.7964C6.125 20.045 6.04434 20.2835 5.90075 20.4593C5.75717 20.6351 5.56243 20.7339 5.35938 20.7339C5.15632 20.7339 4.96158 20.6351 4.818 20.4593C4.67441 20.2835 4.59375 20.045 4.59375 19.7964C4.59375 19.5478 4.67441 19.3093 4.818 19.1335C4.96158 18.9577 5.15632 18.8589 5.35938 18.8589C5.56243 18.8589 5.75717 18.9577 5.90075 19.1335C6.04434 19.3093 6.125 19.5478 6.125 19.7964Z" fill="#8B8C91"/>
</g>
<defs>
<clipPath id="clip0_17_305">
<rect width="24.5" height="30" fill="white" transform="translate(0 0.10891)"/>
</clipPath>
</defs>
</svg>
